# xmcd
#
# Track frame offsets: 
#        150
#        33362
#        70237
#        106701
#        146599
#        182601
#
# Disc length: 2926 seconds
#
# Revision: 2
# Processed by: cddbd v1.5.2PL0 Copyright (c) Steve Scherf et al.
# Submitted via: ExactAudioCopy v0.95b4
#
DISCID=490b6c06
DTITLE=Yogitea - Nature Atmosphères - 08 - Sur La Grève
DYEAR=2003
DGENRE=New Age
TTITLE0=L'aura Des Marins Perdus
TTITLE1=La Mémoire Des Falaises
TTITLE2=Rêve De Lointain
TTITLE3=Les Voiles De La Licorne
TTITLE4=Ecume Et Vague À L'âme
TTITLE5=Lune Mouvante
EXTD=YEAR: 2003
EXTT0=
EXTT1=
EXTT2=
EXTT3=
EXTT4=
EXTT5=
PLAYORDER=
